<svg xmlns="http://www.w3.org/2000/svg" viewBox="0 0 452.34 71.94"><defs><style>.cls-1{fill:#f2c309;}.cls-2{fill:#fff;}</style></defs><g id="katman_2" data-name="katman 2"><g id="katman_1-2" data-name="katman 1"><path class="cls-1" d="M8.1,30.13a16.79,16.79,0,0,1,8-7.3,25.68,25.68,0,0,1,11.1-2.6q10.8,0,17.2,6.8t6.4,19q0,11.89-7.1,18.85t-18,7q-11.89,0-17.6-9.6l-.4,8.5H0V.72H8.1Zm5.1,2.95Q8.6,38,8.6,45.93,8.6,54,13.15,59a15.4,15.4,0,0,0,12,5,17.08,17.08,0,0,0,12.45-4.85q5-4.86,5-13.15,0-8.7-4.9-13.3a17.5,17.5,0,0,0-12.5-4.6A15.51,15.51,0,0,0,13.2,33.08Z"/><path class="cls-1" d="M63.2,2.32a5.83,5.83,0,0,1,7.65.06,5,5,0,0,1,1.65,4,4.7,4.7,0,0,1-1.65,3.85A5.89,5.89,0,0,1,67,11.53a5.65,5.65,0,0,1-3.85-1.35A4.94,4.94,0,0,1,61.6,6.23,4.92,4.92,0,0,1,63.2,2.32Zm-.4,19.11H71v49.3H62.8Z"/><path class="cls-1" d="M100.1,21.13h15.2v7H100v27q0,4.69,1.75,7.1c1.17,1.6,3.18,2.4,6,2.4a16.45,16.45,0,0,0,6.8-1.9l2.4,6.8a23.29,23.29,0,0,1-9.6,2.4q-7.91.19-11.75-4.15T91.8,55.13v-27H81.9v-7h9.9V7.83l8.3-.9Z"/><path class="cls-1" d="M134.5,70.73h-8.1V.72h8.1Z"/><path class="cls-1" d="M150.59,2.32a5.84,5.84,0,0,1,7.66.06,5,5,0,0,1,1.65,4,4.7,4.7,0,0,1-1.65,3.85,5.91,5.91,0,0,1-3.85,1.35,5.68,5.68,0,0,1-3.86-1.35A5,5,0,0,1,149,6.23,5,5,0,0,1,150.59,2.32Zm-.4,19.11h8.21v49.3h-8.21Z"/><path class="cls-2" d="M202,32.33q-5.31-4.8-13.8-4.8a18.55,18.55,0,0,0-8.91,1.85,5.82,5.82,0,0,0-3.4,5.35,5.15,5.15,0,0,0,1,3.2,7.06,7.06,0,0,0,3,2.1,25.17,25.17,0,0,0,3.85,1.2c1.24.26,2.76.53,4.56.8q3.5.39,5.7.8a37,37,0,0,1,5.4,1.5,18.06,18.06,0,0,1,5.1,2.55A11.73,11.73,0,0,1,207.7,51,12.63,12.63,0,0,1,209,57.13a12.84,12.84,0,0,1-6,11q-5.8,3.8-14.6,3.8-15.32,0-22.31-9.2l4.9-5.5q5.61,7.2,17.51,7.2a19.81,19.81,0,0,0,8.65-1.75A6.42,6.42,0,0,0,201,56.83a5.74,5.74,0,0,0-3.45-5.45,30.77,30.77,0,0,0-9.85-2.55A50.15,50.15,0,0,1,181.9,48a34.83,34.83,0,0,1-5.26-1.6,18.1,18.1,0,0,1-4.55-2.5,10.88,10.88,0,0,1-3-3.8,12.12,12.12,0,0,1-1.15-5.35,12,12,0,0,1,3.1-8.4,16.55,16.55,0,0,1,7.45-4.75,32.2,32.2,0,0,1,9.56-1.35q11.3,0,18.7,6.6Z"/><path class="cls-2" d="M223.89,27.48q7.26-7.26,18.35-7.25,11.31,0,18.56,7.25t7.25,18.65q0,11.4-7.3,18.6t-18.51,7.2q-11.19,0-18.4-7.2t-7.2-18.6Q216.64,34.73,223.89,27.48Zm31,5.45a18,18,0,0,0-25.11,0q-5,5.1-5,13.2t4.95,13a18.26,18.26,0,0,0,25.21,0q4.95-5.05,5-13T254.85,32.93ZM227,2.92a4.39,4.39,0,0,1,2.55-1.6,7.57,7.57,0,0,1,3,0,4.39,4.39,0,0,1,2.55,1.6,5,5,0,0,1,1,3.21,4.63,4.63,0,0,1-2.55,4.5,5.36,5.36,0,0,1-5.1,0,4.55,4.55,0,0,1-2.55-4.4A5.11,5.11,0,0,1,227,2.92Zm23.76-1.25a5.4,5.4,0,0,1,5.2,0,4.73,4.73,0,0,1,2.6,4.56A4.58,4.58,0,0,1,256.9,10a5.34,5.34,0,0,1-7.1,0,4.58,4.58,0,0,1-1.65-3.75A4.72,4.72,0,0,1,250.75,1.67Z"/><path class="cls-2" d="M314.35,21.33V25l-27.81,37.8h27.81v7.9h-40v-3.2l28.1-38.7h-26.5v-7.5Z"/><path class="cls-2" d="M334.54,70.73h-8.1V.72h8.1Z"/><path class="cls-2" d="M388.24,70.73l-.4-7.9a19.94,19.94,0,0,1-16.8,9.1q-9.5,0-15-6.1t-5.45-16.9V21.33h8.2v27.6q0,7.4,3.45,11.4t10.45,4a13.41,13.41,0,0,0,10.75-4.75,17.5,17.5,0,0,0,4.05-11.75V21.33h8.3v49.4ZM359.29.67a5.59,5.59,0,0,1,5.3,0,4.8,4.8,0,0,1,2.65,4.66,4.68,4.68,0,0,1-2.65,4.6,5.77,5.77,0,0,1-5.3,0,4.61,4.61,0,0,1-2.65-4.51A4.87,4.87,0,0,1,359.29.67Zm22,.8a5.47,5.47,0,0,1,7.4,0,5,5,0,0,1,1.65,4,4.68,4.68,0,0,1-2.7,4.61,5.87,5.87,0,0,1-5.35,0,4.7,4.7,0,0,1-2.65-4.61A5,5,0,0,1,381.29,1.47Z"/><path class="cls-2" d="M419.14,42.13l20.3-20.8h10.2v.6l-22.7,22.7,25.4,25.5v.6h-9.9l-23.3-23.4v23.4H411V.72h8.1Z"/></g></g></svg>