<svg xmlns="http://www.w3.org/2000/svg" viewBox="0 0 101.51 71.21"><defs><style>.cls-1{fill:#f2c309;}</style></defs><g id="katman_2" data-name="katman 2"><g id="katman_1-2" data-name="katman 1"><path class="cls-1" d="M8.1,29.4a16.84,16.84,0,0,1,8-7.3,25.82,25.82,0,0,1,11.1-2.6q10.8,0,17.2,6.8t6.4,19q0,11.91-7.1,18.85t-18,6.95q-11.89,0-17.6-9.6L7.7,70H0V0H8.1Zm5.1,3Q8.6,37.3,8.6,45.2q0,8.1,4.55,13.1a15.37,15.37,0,0,0,12,5,17,17,0,0,0,12.45-4.85q5-4.85,5-13.15,0-8.7-4.9-13.3a17.55,17.55,0,0,0-12.5-4.6A15.51,15.51,0,0,0,13.2,32.35Z"/><path d="M94.5,31.6q-5.3-4.8-13.8-4.8a18.62,18.62,0,0,0-8.9,1.85A5.82,5.82,0,0,0,68.4,34a5.05,5.05,0,0,0,1,3.2,6.89,6.89,0,0,0,3,2.1,22.84,22.84,0,0,0,3.85,1.2c1.23.27,2.75.54,4.55.8q3.49.41,5.7.8a38.92,38.92,0,0,1,5.4,1.5A18.61,18.61,0,0,1,97,46.15a11.8,11.8,0,0,1,3.25,4.1,12.54,12.54,0,0,1,1.25,6.15,12.79,12.79,0,0,1-6,11q-5.81,3.81-14.6,3.81-15.3,0-22.3-9.21l4.9-5.5Q69.1,63.7,81,63.7A19.78,19.78,0,0,0,89.65,62,6.38,6.38,0,0,0,93.5,56.1a5.76,5.76,0,0,0-3.45-5.45A31.23,31.23,0,0,0,80.2,48.1a48.65,48.65,0,0,1-5.75-.85,33.94,33.94,0,0,1-5.25-1.6,17.62,17.62,0,0,1-4.55-2.5,10.7,10.7,0,0,1-3-3.8A12,12,0,0,1,60.5,34a12,12,0,0,1,3.1-8.4,16.55,16.55,0,0,1,7.45-4.75A32.08,32.08,0,0,1,80.6,19.5q11.3,0,18.7,6.6Z"/></g></g></svg>